<?xml version="1.0" encoding="utf-8"?>
<!-- Generator: Adobe Illustrator 24.0.3, SVG Export Plug-In . SVG Version: 6.00 Build 0)  -->
<svg version="1.1" id="レイヤー_1" xmlns="http://www.w3.org/2000/svg" xmlns:xlink="http://www.w3.org/1999/xlink" x="0px"
	 y="0px" viewBox="0 0 148.2 147.5" style="enable-background:new 0 0 148.2 147.5;" xml:space="preserve">
<style type="text/css">
	.st0{fill:#3389CA;}
	.st1{fill-rule:evenodd;clip-rule:evenodd;fill:#CFE7F9;}
</style>
<title>アートボード 6</title>
<path class="st0" d="M146.3,124.2l1-3.9L146.3,124.2z M120,114c-17.4,1-29.8,7.2-36.4,18.2c-5.9-6.2-16.4-16.1-24.7-18.3l-2.1,7.7
	c6.7,1.8,18.7,13.5,24.8,20.4l4.8,5.5l2.4-6.6c10.2-28,57-16.8,57.5-16.7l1.9-7.7C138.9,114.4,129.5,113.5,120,114z M90.5,74.2
	l27.7-26.1L82.5,33L64.8,0L38.7,27.5L0,33.2l19.6,32.1l-6.2,36.6l38.3-7.7l34.8,16.9L90.5,74.2z"/>
<path class="st1" d="M33.3,44.2h46.1c1.6,0,2.9,1.3,2.9,2.9c0,1.6-1.3,2.9-2.9,2.9c0,0,0,0,0,0H33.3c-1.6,0-2.9-1.3-2.9-2.9
	S31.7,44.2,33.3,44.2z"/>
<path class="st1" d="M33.3,58.6h46.1c1.6,0,2.9,1.3,2.9,2.9s-1.3,2.9-2.9,2.9H33.3c-1.6,0-2.9-1.3-2.9-2.9S31.7,58.6,33.3,58.6z"/>
<path class="st1" d="M33.3,73h46.1c1.6,0,2.9,1.3,2.9,2.9c0,1.6-1.3,2.9-2.9,2.9H33.3c-1.6,0-2.9-1.3-2.9-2.9
	C30.4,74.3,31.7,73,33.3,73z"/>
</svg>
