<svg xmlns="http://www.w3.org/2000/svg" width="30" height="30" viewBox="0 0 30 30">
  <defs>
    <style>
      .cls-1 {
        fill: #fff;
        fill-rule: evenodd;
      }
    </style>
  </defs>
  <path id="twitter" class="cls-1" d="M9.866,25.957A15.428,15.428,0,0,0,25.395,10.419q0-.355-0.016-0.706A11.106,11.106,0,0,0,28.1,6.885a10.9,10.9,0,0,1-3.134.86,5.48,5.48,0,0,0,2.4-3.021A10.937,10.937,0,0,1,23.9,6.049a5.464,5.464,0,0,0-9.3,4.98A15.491,15.491,0,0,1,3.352,5.324a5.467,5.467,0,0,0,1.689,7.291,5.414,5.414,0,0,1-2.472-.683c0,0.023,0,.046,0,0.07a5.463,5.463,0,0,0,4.379,5.354,5.441,5.441,0,0,1-2.465.093,5.464,5.464,0,0,0,5.1,3.793A10.948,10.948,0,0,1,2.8,23.579,11.131,11.131,0,0,1,1.5,23.5a15.446,15.446,0,0,0,8.366,2.453"/>
</svg>
